<?xml version="1.0" encoding="utf-8"?>
<!-- Generator: Adobe Illustrator 21.1.0, SVG Export Plug-In . SVG Version: 6.00 Build 0)  -->
<svg version="1.1" id="Слой_1" xmlns="http://www.w3.org/2000/svg" xmlns:xlink="http://www.w3.org/1999/xlink" x="0px" y="0px"
	 width="29.5px" height="27.1px" viewBox="-195.3 46.3 29.5 27.1" style="enable-background:new -195.3 46.3 29.5 27.1;"
	 xml:space="preserve">
<style type="text/css">
	.st0{fill:#DA2B81;stroke:#DA2B81;stroke-width:1.2;stroke-miterlimit:10;}
</style>
<g>
	<g>
		<path class="st0" d="M-180.5,55.6c-0.5,0-0.8,0.3-0.8,0.8v6c0,0.5,0.3,0.8,0.8,0.8c0.5,0,0.8-0.3,0.8-0.8v-6
			C-179.7,55.9-180,55.6-180.5,55.6L-180.5,55.6z"/>
		<path class="st0" d="M-180,66.1c-0.3-0.3-0.8-0.3-1.2,0c-0.2,0.2-0.2,0.5-0.2,0.7c0,0.3,0,0.5,0.2,0.7c0.2,0.2,0.5,0.2,0.7,0.2
			s0.5,0,0.3-0.2c0.2-0.2,0.3-0.5,0.3-0.7C-179.8,66.5-179.8,66.3-180,66.1z"/>
		<path class="st0" d="M-167,66.3l-9.9-17.2c-0.7-1.3-2.2-2.2-3.7-2.2c-1.5,0-2.8,0.8-3.7,2.2l-9.9,17.2c-0.8,1.3-0.8,3,0,4.3
			c0.7,1.3,2.2,2.2,3.7,2.2h19.7c1.7,0,3-0.8,3.7-2.2C-166.1,69.3-166.1,67.6-167,66.3L-167,66.3z M-168.3,70
			c-0.3,0.8-1.2,1.3-2.2,1.3h-19.9c-0.8,0-1.7-0.5-2.2-1.3s-0.5-1.8,0-2.7l9.9-17.2c0.3-0.8,1.2-1.3,2.2-1.3c1,0,1.8,0.5,2.3,1.3
			l9.9,17.2C-167.8,68.1-167.8,69.1-168.3,70z"/>
	</g>
</g>
</svg>
