<?xml version="1.0" encoding="utf-8"?>
<!-- Generator: Adobe Illustrator 21.1.0, SVG Export Plug-In . SVG Version: 6.00 Build 0)  -->
<svg version="1.1" id="Слой_1" xmlns="http://www.w3.org/2000/svg" xmlns:xlink="http://www.w3.org/1999/xlink" x="0px" y="0px"
	 viewBox="0 0 13.7 13.7" style="enable-background:new 0 0 13.7 13.7;" xml:space="preserve">
<style type="text/css">
	.st0{fill:none;stroke-miterlimit:10;}
	.st1{fill:none;stroke-linecap:round;stroke-linejoin:round;stroke-miterlimit:10;}
</style>
<line class="st0" x1="10.2" y1="1.9" x2="3.5" y2="1.9"/>
<path class="st0" d="M11.6,1.9c0.9,0,1.6,0.8,1.6,1.7v7.9c0,0.9-0.8,1.7-1.7,1.7H2.2c-0.9,0-1.7-0.8-1.7-1.7V3.6
	c0-0.9,0.7-1.6,1.6-1.7"/>
<line class="st0" x1="0.5" y1="5.4" x2="13.2" y2="5.4"/>
<path class="st0" d="M3.5,2.6c0,0.4-0.3,0.7-0.7,0.7l0,0c-0.4,0-0.7-0.3-0.7-0.7V1.2c0-0.4,0.3-0.7,0.7-0.7l0,0
	c0.4,0,0.7,0.3,0.7,0.7V2.6z"/>
<path class="st0" d="M11.6,2.6c0,0.4-0.3,0.7-0.7,0.7l0,0c-0.4,0-0.7-0.3-0.7-0.7V1.2c0-0.4,0.3-0.7,0.7-0.7l0,0
	c0.4,0,0.7,0.3,0.7,0.7V2.6z"/>
<line class="st1" x1="2.8" y1="7.8" x2="10.9" y2="7.8"/>
<line class="st1" x1="2.8" y1="9.4" x2="10.9" y2="9.4"/>
<line class="st1" x1="2.8" y1="11.1" x2="10.9" y2="11.1"/>
</svg>
