<?xml version="1.0" encoding="utf-8"?>
<!-- Generator: Adobe Illustrator 21.1.0, SVG Export Plug-In . SVG Version: 6.00 Build 0)  -->
<svg version="1.1" id="Capa_1" xmlns="http://www.w3.org/2000/svg" xmlns:xlink="http://www.w3.org/1999/xlink" x="0px" y="0px"
	 viewBox="0 0 409.5 464.3" style="enable-background:new 0 0 409.5 464.3;" xml:space="preserve">
<g>
	<g>
		<path d="M176.4,262.1c0-48.6-39.6-88.2-88.2-88.2S0,213.5,0,262.1c0,14.3,3.4,27.7,9.4,39.7l78.8,162.5L167,301.8
			C173,289.8,176.4,276.3,176.4,262.1z M88.2,310.9c-26.9,0-48.8-21.9-48.8-48.8s21.9-48.8,48.8-48.8s48.8,21.9,48.8,48.8
			S115.1,310.9,88.2,310.9z"/>
		<path d="M364.8,0c-24.6,0-44.7,20-44.7,44.7c0,7.2,1.7,14,4.8,20.1l39.9,82.3l39.9-82.3c3-6,4.8-12.9,4.8-20.1
			C409.5,20,389.5,0,364.8,0z M364.8,69.3c-13.6,0-24.7-11.1-24.7-24.7s11.1-24.7,24.7-24.7c13.6,0,24.7,11.1,24.7,24.7
			C389.6,58.3,378.5,69.3,364.8,69.3z"/>
	</g>
</g>
<path d="M377,283.1l-139.3-63.8l123.1-44l-3.1-28.3l-156.3,56.7c-9.6,3.6-7,27.1,0,28.3l125.4,58.2l-142.4,17
	c-7.8,1.9-9.4,17.3-4.7,25.6l46.4,76.6l-101.4,14.2l0.7,28.3l118.4-17c5.7,0.8,11.1-14.5,4.7-25.6l-45.6-76.6l173.3-21.3
	C384.8,310.7,385.7,287.2,377,283.1L377,283.1z"/>
</svg>
