<?xml version="1.0" encoding="utf-8"?>
<svg version="1.1" xmlns="http://www.w3.org/2000/svg" xmlns:xlink="http://www.w3.org/1999/xlink" x="0px" y="0px"
	 viewBox="0 0 79 80" style="enable-background:new 0 0 79 80;" xml:space="preserve">
<style type="text/css">
	.st0{fill-rule:evenodd;clip-rule:evenodd;}
	.st1{fill:none;}
</style>
<ellipse class="st0" cx="39.2" cy="39.8" rx="11.6" ry="11.2"/>
<path class="st0" d="M57.1,40.4c0,9.6-8,17.4-17.9,17.4c-9.9,0-17.9-7.8-17.9-17.4c0-1.7,0.3-3.4,0.7-4.9h-5.3v24.3
	c0,1.3,1,2.3,2.3,2.3h40.1c1.3,0,2.3-1,2.3-2.3V35.5h-5.1C56.8,37,57.1,38.7,57.1,40.4z"/>
<path class="st0" d="M52.3,28.9h6.5c1.4,0,2.6-1.2,2.6-2.6v-6.2c0-1.4-1.2-2.6-2.6-2.6h-6.5c-1.4,0-2.6,1.2-2.6,2.6v6.2
	C49.7,27.7,50.8,28.9,52.3,28.9z"/>
<path class="st0" d="M60.5,68.7H17.7c-4.1,0-7.4-3-7.4-7.4V18.5c0-4.4,3.3-7.4,7.4-7.4h42.8c4.1,0,7.4,3,7.4,7.4v42.8
	C67.9,65.7,64.6,68.7,60.5,68.7z M39.1,0.8C17.5,0.8,0,18.3,0,39.9C0,61.5,17.5,79,39.1,79c21.6,0,39.1-17.5,39.1-39.1
	C78.2,18.3,60.7,0.8,39.1,0.8z"/>
<rect class="st1" width="79" height="80"/>
</svg>
