<?xml version="1.0" encoding="utf-8"?>
<svg version="1.1" xmlns="http://www.w3.org/2000/svg" xmlns:xlink="http://www.w3.org/1999/xlink" x="0px" y="0px"
	 viewBox="0 0 16 16" style="enable-background:new 0 0 16 16;" xml:space="preserve">
<style type="text/css">
	.st0{clip-path:url(#SVGID_2_);}
</style>
<g>
	<defs>
		<rect id="SVGID_1_" x="0.1" y="0" width="15.9" height="16"/>
	</defs>
	<clipPath id="SVGID_2_">
		<use xlink:href="#SVGID_1_"  style="overflow:visible;"/>
	</clipPath>
	<path class="st0" d="M11.5,9.6c0.1-0.6,0.1-1,0.1-1.6s-0.1-1-0.1-1.6h2.7c0.2,0.5,0.2,1,0.2,1.6s-0.1,1.1-0.2,1.6H11.5z M10.1,14.1
		c0.5-0.9,0.9-1.8,1.1-2.9h2.3C12.8,12.6,11.5,13.5,10.1,14.1z M9.8,9.6H6.2C6.1,9,6,8.6,6,8s0.1-1,0.2-1.6h3.8
		C10,7,10.1,7.4,10.1,8S9.9,9,9.8,9.6z M8,14.4c-0.6-1-1.2-2-1.5-3.2h3C9.2,12.3,8.6,13.4,8,14.4z M4.8,4.8H2.5
		c0.8-1.4,2-2.3,3.4-2.9C5.4,2.9,5,3.8,4.8,4.8z M2.5,11.2h2.3c0.2,1,0.6,1.9,1.1,2.9C4.5,13.5,3.2,12.6,2.5,11.2z M1.8,9.6
		C1.7,9.1,1.6,8.6,1.6,8s0.1-1.1,0.2-1.6h2.7C4.5,7,4.5,7.4,4.5,8s0.1,1,0.1,1.6H1.8z M8,1.6c0.6,1,1.2,2,1.5,3.2h-3
		C6.8,3.7,7.4,2.6,8,1.6z M13.5,4.8h-2.3c-0.2-1-0.6-1.9-1.1-2.9C11.5,2.5,12.8,3.4,13.5,4.8z M8,0C3.6,0,0,3.6,0,8s3.6,8,8,8
		s8-3.6,8-8S12.4,0,8,0z"/>
</g>
</svg>
