<?xml version="1.0" encoding="utf-8"?>
<svg version="1.1" xmlns="http://www.w3.org/2000/svg" xmlns:xlink="http://www.w3.org/1999/xlink" x="0px" y="0px"
	 viewBox="0 0 21.3 23" style="enable-background:new 0 0 21.3 23;" xml:space="preserve">
<style type="text/css">
	.st0{fill:none;stroke:#fff;stroke-width:2;stroke-miterlimit:10;}
</style>
<path class="st0" d="M15.4,5.8c0,2.6-2.1,6.6-4.8,6.6s-4.8-4-4.8-6.6C5.9,3.1,8,1,10.7,1S15.4,3.1,15.4,5.8z"/>
<path class="st0" d="M20.3,17.8c0-1.7-1-3.1-2.4-3.8c-1-0.5-2.7-0.1-3.7,0.3l-1.7,0.7c-1,0.4-2.6,0.4-3.7,0l-1.7-0.7
	c-1-0.4-2.7-0.7-3.7-0.3C2,14.7,1,16.1,1,17.8v3.1C1,21.5,1.5,22,2.1,22h17.2c0.6,0,1.1-0.5,1.1-1.1V17.8z"/>
</svg>
