<?xml version="1.0" encoding="utf-8"?>
<!-- Generator: Adobe Illustrator 21.1.0, SVG Export Plug-In . SVG Version: 6.00 Build 0)  -->
<svg version="1.1" id="Слой_1" xmlns="http://www.w3.org/2000/svg" xmlns:xlink="http://www.w3.org/1999/xlink" x="0px" y="0px"
	 viewBox="0 0 48 48" style="enable-background:new 0 0 48 48;" xml:space="preserve">
<style type="text/css">
	.st0{clip-path:url(#SVGID_2_);}
</style>
<g>
	<defs>
		<rect id="SVGID_1_" width="48" height="47.9"/>
	</defs>
	<clipPath id="SVGID_2_">
		<use xlink:href="#SVGID_1_"  style="overflow:visible;"/>
	</clipPath>
	<path class="st0" d="M19.2,34.5v-21L34.6,24L19.2,34.5z M36.4,23.3l-17.6-12c-0.2-0.2-0.6-0.2-0.8,0c-0.3,0.1-0.4,0.4-0.4,0.7v24
		c0,0.3,0.2,0.6,0.4,0.7c0.1,0.1,0.2,0.1,0.4,0.1c0.2,0,0.3,0,0.5-0.1l17.6-12c0.2-0.1,0.4-0.4,0.4-0.7S36.7,23.5,36.4,23.3z"/>
	<path class="st0" d="M24,46.4c-12.4,0-22.4-10-22.4-22.4S11.6,1.6,24,1.6s22.4,10,22.4,22.4S36.4,46.4,24,46.4z M24,0
		C10.8,0,0,10.8,0,24s10.8,24,24,24s24-10.8,24-24S37.2,0,24,0z"/>
</g>
</svg>
