<?xml version="1.0" encoding="utf-8"?>
<!-- Generator: Adobe Illustrator 21.1.0, SVG Export Plug-In . SVG Version: 6.00 Build 0)  -->
<svg version="1.1" id="Слой_1" xmlns="http://www.w3.org/2000/svg" xmlns:xlink="http://www.w3.org/1999/xlink" x="0px" y="0px"
	 viewBox="0 0 58 80" style="enable-background:new 0 0 58 80;" xml:space="preserve">
<style type="text/css">
	.st0{clip-path:url(#SVGID_2_);}
</style>
<g>
	<defs>
		<rect id="SVGID_1_" x="0.1" y="0.8" width="57.9" height="79"/>
	</defs>
	<clipPath id="SVGID_2_">
		<use xlink:href="#SVGID_1_"  style="overflow:visible;"/>
	</clipPath>
	<path class="st0" d="M28.8,44.6c-8.2,0-14.9-6.7-14.9-14.9s6.7-14.9,14.9-14.9c8.2,0,15,6.7,15,14.9S37,44.6,28.8,44.6z M28.8,0.8
		C12.9,0.8,0,13.7,0,29.6c0,4.1,0.8,8.1,2.5,11.8c7.2,15.7,21,32.4,25,37.1c0.3,0.4,0.7,0.6,1.2,0.6c0.5,0,0.9-0.2,1.2-0.6
		c4.1-4.7,17.9-21.3,25-37.1c1.7-3.7,2.5-7.6,2.5-11.8C57.6,13.7,44.6,0.8,28.8,0.8z"/>
</g>
</svg>
