<?xml version="1.0" encoding="utf-8"?>
<!-- Generator: Adobe Illustrator 21.1.0, SVG Export Plug-In . SVG Version: 6.00 Build 0)  -->
<svg version="1.1" id="Слой_1" xmlns="http://www.w3.org/2000/svg" xmlns:xlink="http://www.w3.org/1999/xlink" x="0px" y="0px"
	 viewBox="0 0 237 207" style="enable-background:new 0 0 237 207;" xml:space="preserve">
<style type="text/css">
	.st0{clip-path:url(#SVGID_2_);}
</style>
<g>
	<defs>
		<rect id="SVGID_1_" x="0.1" y="0.3" width="236.9" height="206"/>
	</defs>
	<clipPath id="SVGID_2_">
		<use xlink:href="#SVGID_1_"  style="overflow:visible;"/>
	</clipPath>
	<path class="st0" d="M118.2,20.2c10.2,0,19.1-6.5,22.3-16.1c-6.1,1.7-13.8,2.7-22.3,2.7s-16.2-1-22.3-2.7
		C99.1,13.7,108,20.2,118.2,20.2z"/>
	<path class="st0" d="M236.1,32c-0.5-1.4-1.5-2.5-2.8-3.1L188.2,8.1c-9.6-3.2-19.4-5.8-29.2-7.7c-0.3-0.1-0.7-0.1-1-0.1
		c-2.4,0-4.6,1.7-5.2,4.2c-3.6,15.9-17.6,27.7-34.6,27.7c-17,0-31-11.9-34.6-27.7c-0.6-2.5-2.7-4.2-5.2-4.2c-0.3,0-0.7,0-1,0.1
		c-9.9,1.9-19.6,4.4-29.2,7.7L3.1,28.9c-1.3,0.6-2.3,1.7-2.8,3.1c-0.5,1.4-0.4,2.9,0.3,4.2l19.6,38.6c0.9,1.8,2.8,2.9,4.8,2.9
		c0.5,0,1-0.1,1.5-0.2l21.7-6.4v129.6c0,2.9,2.4,5.3,5.4,5.3h129.4c2.9,0,5.3-2.4,5.3-5.3V71.1l21.7,6.4c0.5,0.2,1,0.2,1.5,0.2
		c2,0,3.8-1.1,4.8-2.9l19.6-38.6C236.5,34.9,236.6,33.4,236.1,32z"/>
</g>
</svg>
