<?xml version="1.0" encoding="utf-8"?>
<svg version="1.1" xmlns="http://www.w3.org/2000/svg" xmlns:xlink="http://www.w3.org/1999/xlink" x="0px" y="0px"
	 viewBox="0 0 79 80" style="enable-background:new 0 0 79 80;" xml:space="preserve">
<style type="text/css">
	.st0{fill:none;}
</style>
<polygon points="20.5,42.8 23.6,42.8 23.6,59.6 26.6,59.6 26.6,42.8 29.7,42.8 29.7,40 20.5,40 "/>
<path d="M45.1,55.4c0,1.3-0.4,2-1.1,2c-0.4,0-0.9-0.2-1.3-0.6v-8.9c0.4-0.4,0.9-0.6,1.3-0.6c0.8,0,1.1,0.7,1.1,2V55.4z M45.3,44.8
	c-1,0-1.9,0.5-2.7,1.6V40H40v19.5h2.6v-1.4c0.9,1.1,1.8,1.6,2.7,1.6c1,0,1.8-0.6,2.1-1.6c0.2-0.6,0.3-1.6,0.3-2.9v-5.8
	c0-1.4-0.1-2.3-0.3-2.9C47.1,45.4,46.4,44.8,45.3,44.8z"/>
<path d="M35.1,56.1c-0.6,0.8-1.1,1.2-1.7,1.2c-0.4,0-0.6-0.2-0.6-0.6c0-0.1,0-0.4,0-1V45h-2.6v11.5c0,1,0.1,1.7,0.2,2.2
	c0.3,0.7,0.9,1.1,1.7,1.1c1,0,2-0.6,3-1.8v1.6h2.6V45h-2.6V56.1z"/>
<path d="M37.3,31.6c0.9,0,1.3-0.7,1.3-2v-6.2c0-1.4-0.4-2-1.3-2c-0.9,0-1.3,0.7-1.3,2v6.2C36.1,30.9,36.5,31.6,37.3,31.6z"/>
<path d="M60.1,60.8c-0.5,2.3-2.4,4-4.7,4.3c-5.4,0.6-10.9,0.6-16.3,0.6c-5.5,0-10.9,0-16.3-0.6c-2.3-0.3-4.2-2-4.7-4.3
	c-0.8-3.3-0.8-6.9-0.8-10.3c0-3.4,0-7,0.8-10.3c0.5-2.3,2.4-4,4.7-4.3c5.4-0.6,10.9-0.6,16.3-0.6c5.5,0,10.9,0,16.3,0.6
	c2.3,0.3,4.2,2,4.7,4.3c0.8,3.3,0.8,6.9,0.8,10.3C60.9,53.9,60.9,57.5,60.1,60.8z M26.3,14.1l2.1,7.7l2-7.7h3l-3.6,11.7v8h-3v-8
	c-0.3-1.4-0.9-3.5-1.8-6.2c-0.6-1.8-1.3-3.7-1.9-5.5H26.3z M33.4,23.9c0-1.6,0.3-2.7,0.8-3.5c0.7-1,1.8-1.5,3.1-1.5
	c1.3,0,2.4,0.5,3.1,1.5c0.6,0.7,0.8,1.9,0.8,3.5V29c0,1.6-0.3,2.7-0.8,3.5c-0.7,1-1.8,1.5-3.1,1.5c-1.3,0-2.4-0.5-3.1-1.5
	c-0.6-0.7-0.8-1.9-0.8-3.5V23.9z M43.4,19.1h2.7v10.8c0,0.6,0,1,0,1c0.1,0.4,0.3,0.6,0.6,0.6c0.5,0,1.1-0.4,1.7-1.2V19.1h2.7v14.7
	h-2.7v-1.6c-1.1,1.2-2.1,1.8-3,1.8c-0.9,0-1.4-0.4-1.7-1.1c-0.1-0.4-0.2-1.1-0.2-2.2V19.1z M39.1,0.8C17.5,0.8,0,18.3,0,39.9
	C0,61.5,17.5,79,39.1,79c21.6,0,39.1-17.5,39.1-39.1C78.2,18.3,60.7,0.8,39.1,0.8z"/>
<path d="M55,50.6h-2.6v-1.3c0-1.3,0.4-2,1.3-2c0.9,0,1.3,0.7,1.3,2V50.6z M53.7,44.8c-1.3,0-2.4,0.5-3.2,1.5
	c-0.6,0.7-0.8,1.9-0.8,3.4v5.1c0,1.5,0.3,2.7,0.8,3.4c0.8,1,1.8,1.5,3.2,1.5c1.4,0,2.5-0.5,3.2-1.6c0.3-0.5,0.5-1,0.6-1.6
	c0-0.3,0.1-0.8,0.1-1.7v-0.4H55c0,1.1,0,1.6-0.1,1.8c-0.2,0.7-0.5,1.1-1.2,1.1c-0.9,0-1.3-0.7-1.3-2v-2.6h5.3v-3
	c0-1.6-0.3-2.7-0.8-3.4C56.1,45.3,55.1,44.8,53.7,44.8z"/>
<rect class="st0" width="79" height="80"/>
</svg>
