<?xml version="1.0" encoding="utf-8"?><svg xmlns="http://www.w3.org/2000/svg" xmlns:xlink="http://www.w3.org/1999/xlink"><symbol id="calendar" viewBox="0 0 13.7 13.7" xmlns="http://www.w3.org/2000/svg"><style>.ast0,.ast1{fill:none;stroke-miterlimit:10}.ast1{stroke-linecap:round;stroke-linejoin:round}</style><path class="ast0" d="M10.2 1.9H3.5M11.6 1.9c.9 0 1.6.8 1.6 1.7v7.9c0 .9-.8 1.7-1.7 1.7H2.2c-.9 0-1.7-.8-1.7-1.7V3.6c0-.9.7-1.6 1.6-1.7M.5 5.4h12.7"/><path class="ast0" d="M3.5 2.6c0 .4-.3.7-.7.7-.4 0-.7-.3-.7-.7V1.2c0-.4.3-.7.7-.7.4 0 .7.3.7.7v1.4zM11.6 2.6c0 .4-.3.7-.7.7-.4 0-.7-.3-.7-.7V1.2c0-.4.3-.7.7-.7.4 0 .7.3.7.7v1.4z"/><path class="ast1" d="M2.8 7.8h8.1M2.8 9.4h8.1M2.8 11.1h8.1"/></symbol><symbol id="check" viewBox="0 0 93.5 93.5" xmlns="http://www.w3.org/2000/svg"><style>.bst0,.bst1{fill:none;stroke-width:7;stroke-miterlimit:10}.bst1{stroke-linecap:round;stroke-linejoin:round}</style><circle class="bst0" cx="46.8" cy="46.8" r="43.2"/><path class="bst1" d="M24.7 46.8l15.9 14.6 29.7-29.3"/></symbol><symbol viewBox="0 0 16 16" id="clock" xmlns="http://www.w3.org/2000/svg"><path d="M8 0C3.6 0 0 3.6 0 8s3.6 8 8 8 8-3.6 8-8-3.6-8-8-8zm0 14.3c-3.5 0-6.3-2.8-6.3-6.3S4.5 1.7 8 1.7s6.3 2.8 6.3 6.3-2.8 6.3-6.3 6.3zm0 0"/><path d="M12.2 7.8H8.6V3.4c0-.4-.3-.7-.7-.7-.4 0-.7.3-.7.7v5c0 .4.3.7.7.7h4.3c.4 0 .7-.3.7-.7-.1-.4-.4-.6-.7-.6zm0 0"/></symbol><symbol id="cross" viewBox="0 0 93.5 93.5" xmlns="http://www.w3.org/2000/svg"><style>.dst0,.dst1{fill:none;stroke-width:7}.dst0{stroke-miterlimit:10}.dst1{stroke-linecap:round;stroke-linejoin:round}</style><circle class="dst0" cx="46.8" cy="46.8" r="43.2"/><path class="dst1" d="M25.5 68.8L68 26.2M68 68.8L25.5 26.2"/></symbol><symbol viewBox="0 0 409.5 464.3" id="distance" xmlns="http://www.w3.org/2000/svg"><path d="M176.4 262.1c0-48.6-39.6-88.2-88.2-88.2S0 213.5 0 262.1c0 14.3 3.4 27.7 9.4 39.7l78.8 162.5L167 301.8c6-12 9.4-25.5 9.4-39.7zm-88.2 48.8c-26.9 0-48.8-21.9-48.8-48.8s21.9-48.8 48.8-48.8 48.8 21.9 48.8 48.8-21.9 48.8-48.8 48.8zM364.8 0c-24.6 0-44.7 20-44.7 44.7 0 7.2 1.7 14 4.8 20.1l39.9 82.3 39.9-82.3c3-6 4.8-12.9 4.8-20.1 0-24.7-20-44.7-44.7-44.7zm0 69.3c-13.6 0-24.7-11.1-24.7-24.7s11.1-24.7 24.7-24.7 24.7 11.1 24.7 24.7c.1 13.7-11 24.7-24.7 24.7z"/><path d="M377 283.1l-139.3-63.8 123.1-44-3.1-28.3-156.3 56.7c-9.6 3.6-7 27.1 0 28.3l125.4 58.2-142.4 17c-7.8 1.9-9.4 17.3-4.7 25.6l46.4 76.6-101.4 14.2.7 28.3 118.4-17c5.7.8 11.1-14.5 4.7-25.6l-45.6-76.6 173.3-21.3c8.6-.7 9.5-24.2.8-28.3z"/></symbol><symbol viewBox="0 0 78.2 78.2" id="fb" xmlns="http://www.w3.org/2000/svg"><defs><style>.fcls-1{fill:none}.fcls-2{clip-path:url(#fclip-path)}</style><clipPath id="fclip-path" transform="translate(0 -.8)"><path class="fcls-1" d="M0 0h79v80H0z"/></clipPath></defs><title>fb</title><path d="M54 19.91h-5.39c-4.24 0-5.06 2-5.06 5v6.52h10.11v10.19H43.55v26.2H33v-26.2h-8.82V31.41H33v-7.54c0-8.74 5.34-13.5 13.14-13.5H54v9.52zM39.1 0a39.1 39.1 0 1 0 39.1 39.1A39.1 39.1 0 0 0 39.1 0z" class="fcls-2"/></symbol><symbol id="heart" viewBox="0 0 16 16" xmlns="http://www.w3.org/2000/svg"><style>.gst0{clip-path:url(#gSVGID_2_)}</style><defs><path id="gSVGID_1_" d="M.1.3H16v15H.1z"/></defs><clipPath id="gSVGID_2_"><use xlink:href="#gSVGID_1_" overflow="visible"/></clipPath><path class="gst0" d="M8 15l-1.1-1.1C2.7 10.2 0 7.7 0 4.7 0 2.2 1.9.3 4.4.3 5.8.3 7.1.9 8 2 8.9 1 10.2.3 11.6.3 14.1.3 16 2.2 16 4.7c0 3-2.7 5.5-6.9 9.2L8 15z"/></symbol><symbol viewBox="0 0 79 80" id="inst" xmlns="http://www.w3.org/2000/svg"><style>.hst0{fill-rule:evenodd;clip-rule:evenodd}.hst1{fill:none}</style><ellipse class="hst0" cx="39.2" cy="39.8" rx="11.6" ry="11.2"/><path class="hst0" d="M57.1 40.4c0 9.6-8 17.4-17.9 17.4-9.9 0-17.9-7.8-17.9-17.4 0-1.7.3-3.4.7-4.9h-5.3v24.3c0 1.3 1 2.3 2.3 2.3h40.1c1.3 0 2.3-1 2.3-2.3V35.5h-5.1c.5 1.5.8 3.2.8 4.9zM52.3 28.9h6.5c1.4 0 2.6-1.2 2.6-2.6v-6.2c0-1.4-1.2-2.6-2.6-2.6h-6.5c-1.4 0-2.6 1.2-2.6 2.6v6.2c0 1.4 1.1 2.6 2.6 2.6z"/><path class="hst0" d="M60.5 68.7H17.7c-4.1 0-7.4-3-7.4-7.4V18.5c0-4.4 3.3-7.4 7.4-7.4h42.8c4.1 0 7.4 3 7.4 7.4v42.8c0 4.4-3.3 7.4-7.4 7.4zM39.1.8C17.5.8 0 18.3 0 39.9S17.5 79 39.1 79s39.1-17.5 39.1-39.1S60.7.8 39.1.8z"/><path class="hst1" d="M0 0h79v80H0z"/></symbol><symbol viewBox="0 0 16 16" id="language" xmlns="http://www.w3.org/2000/svg"><style>.ist0{clip-path:url(#iSVGID_2_)}</style><defs><path id="iSVGID_1_" d="M.1 0H16v16H.1z"/></defs><clipPath id="iSVGID_2_"><use xlink:href="#iSVGID_1_" overflow="visible"/></clipPath><path class="ist0" d="M11.5 9.6c.1-.6.1-1 .1-1.6s-.1-1-.1-1.6h2.7c.2.5.2 1 .2 1.6s-.1 1.1-.2 1.6h-2.7zm-1.4 4.5c.5-.9.9-1.8 1.1-2.9h2.3c-.7 1.4-2 2.3-3.4 2.9zm-.3-4.5H6.2C6.1 9 6 8.6 6 8s.1-1 .2-1.6H10c0 .6.1 1 .1 1.6s-.2 1-.3 1.6zM8 14.4c-.6-1-1.2-2-1.5-3.2h3c-.3 1.1-.9 2.2-1.5 3.2zM4.8 4.8H2.5c.8-1.4 2-2.3 3.4-2.9-.5 1-.9 1.9-1.1 2.9zm-2.3 6.4h2.3c.2 1 .6 1.9 1.1 2.9-1.4-.6-2.7-1.5-3.4-2.9zm-.7-1.6c-.1-.5-.2-1-.2-1.6s.1-1.1.2-1.6h2.7V8c0 .6.1 1 .1 1.6H1.8zm6.2-8c.6 1 1.2 2 1.5 3.2h-3c.3-1.1.9-2.2 1.5-3.2zm5.5 3.2h-2.3c-.2-1-.6-1.9-1.1-2.9 1.4.6 2.7 1.5 3.4 2.9zM8 0C3.6 0 0 3.6 0 8s3.6 8 8 8 8-3.6 8-8-3.6-8-8-8z"/></symbol><symbol viewBox="0 0 21.3 23" id="person" xmlns="http://www.w3.org/2000/svg"><style>.jst0{fill:none;stroke:#fff;stroke-width:2;stroke-miterlimit:10}</style><path class="jst0" d="M15.4 5.8c0 2.6-2.1 6.6-4.8 6.6s-4.8-4-4.8-6.6C5.9 3.1 8 1 10.7 1s4.7 2.1 4.7 4.8zM20.3 17.8c0-1.7-1-3.1-2.4-3.8-1-.5-2.7-.1-3.7.3l-1.7.7c-1 .4-2.6.4-3.7 0l-1.7-.7c-1-.4-2.7-.7-3.7-.3C2 14.7 1 16.1 1 17.8v3.1c0 .6.5 1.1 1.1 1.1h17.2c.6 0 1.1-.5 1.1-1.1v-3.1z"/></symbol><symbol id="play-button" viewBox="0 0 48 48" xmlns="http://www.w3.org/2000/svg"><style>.kst0{clip-path:url(#kSVGID_2_)}</style><defs><path id="kSVGID_1_" d="M0 0h48v47.9H0z"/></defs><clipPath id="kSVGID_2_"><use xlink:href="#kSVGID_1_" overflow="visible"/></clipPath><path class="kst0" d="M19.2 34.5v-21L34.6 24 19.2 34.5zm17.2-11.2l-17.6-12c-.2-.2-.6-.2-.8 0-.3.1-.4.4-.4.7v24c0 .3.2.6.4.7.1.1.2.1.4.1s.3 0 .5-.1l17.6-12c.2-.1.4-.4.4-.7s-.2-.5-.5-.7z"/><path class="kst0" d="M24 46.4c-12.4 0-22.4-10-22.4-22.4S11.6 1.6 24 1.6s22.4 10 22.4 22.4-10 22.4-22.4 22.4zM24 0C10.8 0 0 10.8 0 24s10.8 24 24 24 24-10.8 24-24S37.2 0 24 0z"/></symbol><symbol id="point" viewBox="0 0 58 80" xmlns="http://www.w3.org/2000/svg"><style>.lst0{clip-path:url(#lSVGID_2_)}</style><defs><path id="lSVGID_1_" d="M.1.8H58v79H.1z"/></defs><clipPath id="lSVGID_2_"><use xlink:href="#lSVGID_1_" overflow="visible"/></clipPath><path class="lst0" d="M28.8 44.6c-8.2 0-14.9-6.7-14.9-14.9s6.7-14.9 14.9-14.9 15 6.7 15 14.9-6.8 14.9-15 14.9zm0-43.8C12.9.8 0 13.7 0 29.6c0 4.1.8 8.1 2.5 11.8 7.2 15.7 21 32.4 25 37.1.3.4.7.6 1.2.6s.9-.2 1.2-.6c4.1-4.7 17.9-21.3 25-37.1 1.7-3.7 2.5-7.6 2.5-11.8C57.6 13.7 44.6.8 28.8.8z"/></symbol><symbol id="t-shirt" viewBox="0 0 237 207" xmlns="http://www.w3.org/2000/svg"><style>.mst0{clip-path:url(#mSVGID_2_)}</style><defs><path id="mSVGID_1_" d="M.1.3H237v206H.1z"/></defs><clipPath id="mSVGID_2_"><use xlink:href="#mSVGID_1_" overflow="visible"/></clipPath><path class="mst0" d="M118.2 20.2c10.2 0 19.1-6.5 22.3-16.1-6.1 1.7-13.8 2.7-22.3 2.7s-16.2-1-22.3-2.7c3.2 9.6 12.1 16.1 22.3 16.1z"/><path class="mst0" d="M236.1 32c-.5-1.4-1.5-2.5-2.8-3.1L188.2 8.1c-9.6-3.2-19.4-5.8-29.2-7.7-.3-.1-.7-.1-1-.1-2.4 0-4.6 1.7-5.2 4.2-3.6 15.9-17.6 27.7-34.6 27.7s-31-11.9-34.6-27.7C83 2 80.9.3 78.4.3c-.3 0-.7 0-1 .1-9.9 1.9-19.6 4.4-29.2 7.7L3.1 28.9C1.8 29.5.8 30.6.3 32c-.5 1.4-.4 2.9.3 4.2l19.6 38.6c.9 1.8 2.8 2.9 4.8 2.9.5 0 1-.1 1.5-.2l21.7-6.4v129.6c0 2.9 2.4 5.3 5.4 5.3H183c2.9 0 5.3-2.4 5.3-5.3V71.1l21.7 6.4c.5.2 1 .2 1.5.2 2 0 3.8-1.1 4.8-2.9l19.6-38.6c.6-1.3.7-2.8.2-4.2z"/></symbol><symbol viewBox="0 0 79 80" id="youtube" xmlns="http://www.w3.org/2000/svg"><style>.nst0{fill:none}</style><path d="M20.5 42.8h3.1v16.8h3V42.8h3.1V40h-9.2zM45.1 55.4c0 1.3-.4 2-1.1 2-.4 0-.9-.2-1.3-.6v-8.9c.4-.4.9-.6 1.3-.6.8 0 1.1.7 1.1 2v6.1zm.2-10.6c-1 0-1.9.5-2.7 1.6V40H40v19.5h2.6v-1.4c.9 1.1 1.8 1.6 2.7 1.6 1 0 1.8-.6 2.1-1.6.2-.6.3-1.6.3-2.9v-5.8c0-1.4-.1-2.3-.3-2.9-.3-1.1-1-1.7-2.1-1.7zM35.1 56.1c-.6.8-1.1 1.2-1.7 1.2-.4 0-.6-.2-.6-.6V45h-2.6v11.5c0 1 .1 1.7.2 2.2.3.7.9 1.1 1.7 1.1 1 0 2-.6 3-1.8v1.6h2.6V45h-2.6v11.1zM37.3 31.6c.9 0 1.3-.7 1.3-2v-6.2c0-1.4-.4-2-1.3-2s-1.3.7-1.3 2v6.2c.1 1.3.5 2 1.3 2z"/><path d="M60.1 60.8c-.5 2.3-2.4 4-4.7 4.3-5.4.6-10.9.6-16.3.6-5.5 0-10.9 0-16.3-.6-2.3-.3-4.2-2-4.7-4.3-.8-3.3-.8-6.9-.8-10.3 0-3.4 0-7 .8-10.3.5-2.3 2.4-4 4.7-4.3 5.4-.6 10.9-.6 16.3-.6 5.5 0 10.9 0 16.3.6 2.3.3 4.2 2 4.7 4.3.8 3.3.8 6.9.8 10.3 0 3.4 0 7-.8 10.3zM26.3 14.1l2.1 7.7 2-7.7h3l-3.6 11.7v8h-3v-8c-.3-1.4-.9-3.5-1.8-6.2-.6-1.8-1.3-3.7-1.9-5.5h3.2zm7.1 9.8c0-1.6.3-2.7.8-3.5.7-1 1.8-1.5 3.1-1.5s2.4.5 3.1 1.5c.6.7.8 1.9.8 3.5V29c0 1.6-.3 2.7-.8 3.5-.7 1-1.8 1.5-3.1 1.5s-2.4-.5-3.1-1.5c-.6-.7-.8-1.9-.8-3.5v-5.1zm10-4.8h2.7v11.8c.1.4.3.6.6.6.5 0 1.1-.4 1.7-1.2V19.1h2.7v14.7h-2.7v-1.6c-1.1 1.2-2.1 1.8-3 1.8-.9 0-1.4-.4-1.7-1.1-.1-.4-.2-1.1-.2-2.2V19.1zM39.1.8C17.5.8 0 18.3 0 39.9S17.5 79 39.1 79s39.1-17.5 39.1-39.1S60.7.8 39.1.8z"/><path d="M55 50.6h-2.6v-1.3c0-1.3.4-2 1.3-2s1.3.7 1.3 2v1.3zm-1.3-5.8c-1.3 0-2.4.5-3.2 1.5-.6.7-.8 1.9-.8 3.4v5.1c0 1.5.3 2.7.8 3.4.8 1 1.8 1.5 3.2 1.5 1.4 0 2.5-.5 3.2-1.6.3-.5.5-1 .6-1.6 0-.3.1-.8.1-1.7v-.4H55c0 1.1 0 1.6-.1 1.8-.2.7-.5 1.1-1.2 1.1-.9 0-1.3-.7-1.3-2v-2.6h5.3v-3c0-1.6-.3-2.7-.8-3.4-.8-1-1.8-1.5-3.2-1.5z"/><path class="nst0" d="M0 0h79v80H0z"/></symbol></svg>